# xmcd
#
# Track frame offsets: 
#        150
#        12165
#        25408
#        39498
#        54480
#        68015
#        81983
#        96695
#        118478
#        131138
#        147950
#        166228
#        169270
#        186813
#        202505
#        229883
#        246778
#        264925
#        283150
#        296680
#        309773
#        321330
#        333250
#
# Disc length: 4636 seconds
#
# Revision: 1
# Processed by: cddbd v1.5.2PL0 Copyright (c) Steve Scherf et al.
# Submitted via: ExactAudioCopyFreeDBPlugin 1.0
#
DISCID=53121a17
DTITLE=SHOCKING BLUE - AT HOME+SCORPIO'S DANCE
DYEAR=1900
DGENRE=
TTITLE0=Boll weevil
TTITLE1=I'll write your name through the fire
TTITLE2=Acka raga
TTITLE3=Love machine
TTITLE4=I'm a woman
TTITLE5=Venus
TTITLE6=California here i come
TTITLE7=Poor boy
TTITLE8=Long and lonesome road
TTITLE9=Love buzz
TTITLE10=The butterfly and i
TTITLE11=Scorpio's dance (first movement)
TTITLE12=Alaska country
TTITLE13=Sally was a good old girl
TTITLE14=Deamon lover
TTITLE15=Scorpio's dance
TTITLE16=Little cooling planet
TTITLE17=I love voodoo music
TTITLE18=Seven is a number in magic
TTITLE19=Keep it if you want it
TTITLE20=Water boy
TTITLE21=Harley davidson
TTITLE22=Mighty joe
EXTD=
EXTT0=
EXTT1=
EXTT2=
EXTT3=
EXTT4=
EXTT5=
EXTT6=
EXTT7=
EXTT8=
EXTT9=
EXTT10=
EXTT11=
EXTT12=
EXTT13=
EXTT14=
EXTT15=
EXTT16=
EXTT17=
EXTT18=
EXTT19=
EXTT20=
EXTT21=
EXTT22=
PLAYORDER=
